<?xml version="1.0" encoding="UTF-8" standalone="no"?>
<!-- Generator: Adobe Illustrator 16.0.0, SVG Export Plug-In . SVG Version: 6.00 Build 0)  -->

<svg
   xmlns:dc="http://purl.org/dc/elements/1.1/"
   xmlns:cc="http://creativecommons.org/ns#"
   xmlns:rdf="http://www.w3.org/1999/02/22-rdf-syntax-ns#"
   xmlns:svg="http://www.w3.org/2000/svg"
   xmlns="http://www.w3.org/2000/svg"
   xmlns:sodipodi="http://sodipodi.sourceforge.net/DTD/sodipodi-0.dtd"
   xmlns:inkscape="http://www.inkscape.org/namespaces/inkscape"
   version="1.1"
   id="Capa_1"
   x="0px"
   y="0px"
   width="75.224px"
   height="75.224px"
   viewBox="0 0 75.224 75.224"
   style="enable-background:new 0 0 75.224 75.224;"
   xml:space="preserve"
   inkscape:version="0.48.4 r9939"
   sodipodi:docname="icon-tag.svg"><metadata
   id="metadata44"><rdf:RDF><cc:Work
       rdf:about=""><dc:format>image/svg+xml</dc:format><dc:type
         rdf:resource="http://purl.org/dc/dcmitype/StillImage" /></cc:Work></rdf:RDF></metadata><defs
   id="defs42" /><sodipodi:namedview
   pagecolor="#ffffff"
   bordercolor="#666666"
   borderopacity="1"
   objecttolerance="10"
   gridtolerance="10"
   guidetolerance="10"
   inkscape:pageopacity="0"
   inkscape:pageshadow="2"
   inkscape:window-width="749"
   inkscape:window-height="480"
   id="namedview40"
   showgrid="false"
   inkscape:zoom="3.1372966"
   inkscape:cx="37.612"
   inkscape:cy="37.612"
   inkscape:window-x="0"
   inkscape:window-y="0"
   inkscape:window-maximized="0"
   inkscape:current-layer="Capa_1" />
<g
   id="g3"
   style="fill:#ffffff;fill-opacity:1">
	<g
   id="_x32__x5F_5"
   style="fill:#ffffff;fill-opacity:1">
		<g
   id="g6"
   style="fill:#ffffff;fill-opacity:1">
			<path
   d="M66.354,1.832L49.734,1.607c-0.572-0.075-1.174-0.112-1.797-0.112c-4.57,0-10.251,1.976-13.41,4.808l-31.62,28.35     c-3.59,3.217-3.898,8.792-0.686,12.387L23.47,70.816c1.723,1.929,4.122,2.912,6.532,2.912c2.081,0,4.17-0.733,5.834-2.226     l31.622-28.35c3.588-3.218,6.439-9.797,6.336-14.621l1.431-16.774C75.121,6.934,71.129,2.469,66.354,1.832z M68.541,28.644     c0.068,3.265-2.162,8.41-4.59,10.586L32.33,67.581c-0.635,0.57-1.463,0.884-2.328,0.884c-0.591,0-1.717-0.15-2.617-1.158     L6.137,43.53c-1.266-1.417-1.141-3.687,0.274-4.955l31.621-28.349c2.133-1.912,6.575-3.466,9.905-3.466     c0.399,0,0.771,0.022,1.104,0.066L65.662,7.05c2.205,0.295,4.258,2.592,4.308,4.821L68.541,28.644z M53.838,12.51     c-5.119,0-9.27,4.157-9.27,9.285c0,5.126,4.148,9.283,9.27,9.283c5.119,0,9.268-4.157,9.268-9.283     C63.104,16.667,58.957,12.51,53.838,12.51z M53.838,25.814c-2.213,0-4.016-1.803-4.016-4.02c0-2.217,1.803-4.021,4.016-4.021     s4.014,1.805,4.014,4.021C57.852,24.011,56.051,25.814,53.838,25.814z"
   id="path8"
   style="fill:#ffffff;fill-opacity:1" />
		</g>
	</g>
</g>
<g
   id="g10">
</g>
<g
   id="g12">
</g>
<g
   id="g14">
</g>
<g
   id="g16">
</g>
<g
   id="g18">
</g>
<g
   id="g20">
</g>
<g
   id="g22">
</g>
<g
   id="g24">
</g>
<g
   id="g26">
</g>
<g
   id="g28">
</g>
<g
   id="g30">
</g>
<g
   id="g32">
</g>
<g
   id="g34">
</g>
<g
   id="g36">
</g>
<g
   id="g38">
</g>
</svg>