<?xml version="1.0" encoding="UTF-8" standalone="no"?>
<svg
   xmlns:dc="http://purl.org/dc/elements/1.1/"
   xmlns:cc="http://creativecommons.org/ns#"
   xmlns:rdf="http://www.w3.org/1999/02/22-rdf-syntax-ns#"
   xmlns:svg="http://www.w3.org/2000/svg"
   xmlns="http://www.w3.org/2000/svg"
   xml:space="preserve"
   style="enable-background:new 0 0 32 32;"
   viewBox="0 0 32 32"
   height="32px"
   width="32px"
   y="0px"
   x="0px"
   id="Capa_1"
   version="1.1"><metadata
     id="metadata44"><rdf:RDF><cc:Work
         rdf:about=""><dc:format>image/svg+xml</dc:format><dc:type
           rdf:resource="http://purl.org/dc/dcmitype/StillImage" /><dc:title></dc:title></cc:Work></rdf:RDF></metadata><defs
     id="defs42" /><g
     style="stroke:none;stroke-opacity:1;fill:#ffffff;fill-opacity:1"
     id="g3"><g
       style="stroke:none;stroke-opacity:1;fill:#ffffff;fill-opacity:1"
       id="Smartphone"><g
         style="stroke:none;stroke-opacity:1;fill:#ffffff;fill-opacity:1"
         id="g6"><path
           style="stroke:none;stroke-opacity:1;fill:#ffffff;fill-opacity:1"
           id="path8"
           d="M23.25,0H8.75C7.233,0,6,1.29,6,2.875v26.25C6,30.71,7.233,32,8.75,32h14.5c1.518,0,2.75-1.29,2.75-2.875V2.875     C26,1.29,24.768,0,23.25,0z M24,29.125C24,29.607,23.663,30,23.25,30H8.75C8.337,30,8,29.607,8,29.125V25h16V29.125z M24,23H8V8     h16V23z M24,6H8V2.875C8,2.393,8.337,2,8.75,2h14.5C23.663,2,24,2.393,24,2.875V6z M16,29c0.829,0,1.5-0.672,1.5-1.5     S16.829,26,16,26s-1.5,0.672-1.5,1.5S15.171,29,16,29z M18,3h-4c-0.553,0-1,0.447-1,1s0.447,1,1,1h4c0.553,0,1-0.447,1-1     S18.553,3,18,3z" /></g></g></g><g
     id="g10" /><g
     id="g12" /><g
     id="g14" /><g
     id="g16" /><g
     id="g18" /><g
     id="g20" /><g
     id="g22" /><g
     id="g24" /><g
     id="g26" /><g
     id="g28" /><g
     id="g30" /><g
     id="g32" /><g
     id="g34" /><g
     id="g36" /><g
     id="g38" /></svg>