<?xml version="1.0" encoding="UTF-8" standalone="no"?>
<!-- Created with Inkscape (http://www.inkscape.org/) -->

<svg
   xmlns:dc="http://purl.org/dc/elements/1.1/"
   xmlns:cc="http://creativecommons.org/ns#"
   xmlns:rdf="http://www.w3.org/1999/02/22-rdf-syntax-ns#"
   xmlns:svg="http://www.w3.org/2000/svg"
   xmlns="http://www.w3.org/2000/svg"
   xmlns:sodipodi="http://sodipodi.sourceforge.net/DTD/sodipodi-0.dtd"
   xmlns:inkscape="http://www.inkscape.org/namespaces/inkscape"
   width="581.34595"
   height="256"
   id="svg2"
   version="1.1"
   inkscape:version="0.91 r13725"
   sodipodi:docname="SMAR_icon.svg">
  <defs
     id="defs4" />
  <sodipodi:namedview
     id="base"
     pagecolor="#ffffff"
     bordercolor="#666666"
     borderopacity="1.0"
     inkscape:pageopacity="0.0"
     inkscape:pageshadow="2"
     inkscape:zoom="1"
     inkscape:cx="222.60101"
     inkscape:cy="42.924377"
     inkscape:document-units="px"
     inkscape:current-layer="layer1"
     showgrid="false"
     inkscape:object-nodes="true"
     fit-margin-top="0"
     fit-margin-left="0"
     fit-margin-right="0"
     fit-margin-bottom="0"
     inkscape:window-width="1600"
     inkscape:window-height="838"
     inkscape:window-x="-8"
     inkscape:window-y="-8"
     inkscape:window-maximized="1"
     inkscape:snap-global="false">
    <inkscape:grid
       type="xygrid"
       id="grid2985"
       empspacing="5"
       visible="true"
       enabled="true"
       snapvisiblegridlinesonly="true"
       originx="-168.96179"
       originy="-560.28949" />
  </sodipodi:namedview>
  <metadata
     id="metadata7">
    <rdf:RDF>
      <cc:Work
         rdf:about="">
        <dc:format>image/svg+xml</dc:format>
        <dc:type
           rdf:resource="http://purl.org/dc/dcmitype/StillImage" />
        <dc:title></dc:title>
      </cc:Work>
    </rdf:RDF>
  </metadata>
  <g
     inkscape:label="Ebene 1"
     inkscape:groupmode="layer"
     id="layer1"
     transform="translate(-168.96179,-236.07269)">
    <rect
       style="opacity:1;fill:#16a082;fill-opacity:1;stroke:none;stroke-width:4;stroke-linecap:round;stroke-linejoin:round;stroke-miterlimit:4;stroke-dasharray:none;stroke-dashoffset:0;stroke-opacity:1"
       id="rect4135"
       width="16"
       height="16"
       x="168.96179"
       y="476.07269"
       inkscape:export-xdpi="90"
       inkscape:export-ydpi="90" />
    <path
       style="color:#000000;font-style:normal;font-variant:normal;font-weight:normal;font-stretch:normal;font-size:medium;line-height:normal;font-family:Sans;-inkscape-font-specification:Sans;text-indent:0;text-align:start;text-decoration:none;text-decoration-line:none;letter-spacing:normal;word-spacing:normal;text-transform:none;direction:ltr;block-progression:tb;writing-mode:lr-tb;baseline-shift:baseline;text-anchor:start;display:inline;overflow:visible;visibility:visible;fill:#ffffff;fill-opacity:1;stroke:#ffffff;stroke-width:1;stroke-miterlimit:4;stroke-dasharray:none;stroke-opacity:1;marker:none;enable-background:accumulate"
       d="m 176.83946,478.10298 c -0.25644,0.0151 -0.85561,0.087 -1.45112,0.38463 -0.79404,0.39686 -1.62598,1.27007 -1.62598,2.79738 0,1.5273 0.83194,2.41799 1.62598,2.81484 0.59551,0.29765 1.19468,0.36948 1.45112,0.38465 0.005,1.2e-4 0.0117,1.2e-4 0.0174,0 0.064,0.003 0.10487,0 0.10487,0 0,0 0.59498,3.9e-4 1.18888,0.29722 0.59389,0.29682 1.17141,0.8156 1.17141,2.06307 0,1.24745 -0.57752,1.74873 -1.17141,2.04558 -0.59384,0.29682 -1.18882,0.31469 -1.18882,0.31469 l -2.7799,0 c -0.56743,-0.009 -0.56743,0.84724 0,0.83922 l 2.7799,0 c 0,0 0.7795,-0.004 1.57352,-0.40212 0.79404,-0.39685 1.62597,-1.27008 1.62597,-2.79737 0,-1.52732 -0.83193,-2.40052 -1.62597,-2.79737 -0.79402,-0.39687 -1.57352,-0.40213 -1.57352,-0.40213 0,0 -0.61247,-3.9e-4 -1.20637,-0.29723 -0.5939,-0.29682 -1.15392,-0.81559 -1.15392,-2.06305 0,-1.24746 0.56002,-1.74875 1.15392,-2.04558 0.5939,-0.29684 1.20637,-0.29722 1.20637,-0.29722 l 2.7799,0 c 0.56743,0.009 0.56743,-0.84724 0,-0.83921 l -2.7799,0 c 0,0 -0.0369,-0.004 -0.12239,0 z"
       id="path2993"
       inkscape:connector-curvature="0"
       sodipodi:nodetypes="scsscccssscccccsscsssccccs"
       inkscape:export-xdpi="90"
       inkscape:export-ydpi="90" />
    <rect
       y="460.07269"
       x="194.41763"
       height="32"
       width="32"
       id="rect4149"
       style="opacity:1;fill:#16a082;fill-opacity:1;stroke:none;stroke-width:4;stroke-linecap:round;stroke-linejoin:round;stroke-miterlimit:4;stroke-dasharray:none;stroke-dashoffset:0;stroke-opacity:1"
       inkscape:export-xdpi="90"
       inkscape:export-ydpi="90" />
    <path
       sodipodi:nodetypes="scsscccssscccccsscsssccccs"
       inkscape:connector-curvature="0"
       id="path4151"
       d="m 210.17297,464.13327 c -0.51288,0.0302 -1.71122,0.174 -2.90224,0.76926 -1.58808,0.79372 -3.25196,2.54014 -3.25196,5.59476 0,3.0546 1.66388,4.83598 3.25196,5.62968 1.19102,0.5953 2.38936,0.73896 2.90224,0.7693 0.01,2.4e-4 0.0234,2.4e-4 0.0348,0 0.128,0.006 0.20974,0 0.20974,0 0,0 1.18996,7.8e-4 2.37776,0.59444 1.18778,0.59364 2.34282,1.6312 2.34282,4.12614 0,2.4949 -1.15504,3.49746 -2.34282,4.09116 -1.18768,0.59364 -2.37764,0.62938 -2.37764,0.62938 l -5.5598,0 c -1.13486,-0.018 -1.13486,1.69448 0,1.67844 l 5.5598,0 c 0,0 1.559,-0.008 3.14704,-0.80424 1.58808,-0.7937 3.25194,-2.54016 3.25194,-5.59474 0,-3.05464 -1.66386,-4.80104 -3.25194,-5.59474 -1.58804,-0.79374 -3.14704,-0.80426 -3.14704,-0.80426 0,0 -1.22494,-7.8e-4 -2.41274,-0.59446 -1.1878,-0.59364 -2.30784,-1.63118 -2.30784,-4.1261 0,-2.49492 1.12004,-3.4975 2.30784,-4.09116 1.1878,-0.59368 2.41274,-0.59444 2.41274,-0.59444 l 5.5598,0 c 1.13486,0.018 1.13486,-1.69448 0,-1.67842 l -5.5598,0 c 0,0 -0.0738,-0.008 -0.24478,0 z"
       style="color:#000000;font-style:normal;font-variant:normal;font-weight:normal;font-stretch:normal;font-size:medium;line-height:normal;font-family:Sans;-inkscape-font-specification:Sans;text-indent:0;text-align:start;text-decoration:none;text-decoration-line:none;letter-spacing:normal;word-spacing:normal;text-transform:none;direction:ltr;block-progression:tb;writing-mode:lr-tb;baseline-shift:baseline;text-anchor:start;display:inline;overflow:visible;visibility:visible;fill:#ffffff;fill-opacity:1;stroke:none;stroke-width:2;stroke-miterlimit:4;stroke-dasharray:none;stroke-opacity:1;marker:none;enable-background:accumulate"
       inkscape:export-xdpi="90"
       inkscape:export-ydpi="90" />
    <rect
       style="opacity:1;fill:#16a082;fill-opacity:1;stroke:none;stroke-width:4;stroke-linecap:round;stroke-linejoin:round;stroke-miterlimit:4;stroke-dasharray:none;stroke-dashoffset:0;stroke-opacity:1"
       id="rect4153"
       width="48"
       height="48"
       x="235.91763"
       y="444.07269"
       inkscape:export-xdpi="90"
       inkscape:export-ydpi="90" />
    <path
       id="path4155"
       d="m 242.43615,461.28466 c -0.29144,0.0172 -0.97235,0.0989 -1.64911,0.43712 -0.90235,0.45099 -1.84779,1.44333 -1.84779,3.17899 0,1.73567 0.94544,2.74787 1.84779,3.19887 0.67676,0.33825 1.35767,0.41988 1.64911,0.43712 a 0.47778035,0.47778035 0 0 0 0.0198,0 c 0.0728,0.003 0.11922,0 0.11922,0 0,0 0.67615,4.4e-4 1.35107,0.33776 0.67492,0.33733 1.33121,0.92688 1.33121,2.34452 0,1.41764 -0.65629,1.98731 -1.33121,2.32464 -0.67492,0.33733 -1.35107,0.35764 -1.35107,0.35764 l -3.15914,0 a 0.4768976,0.4768976 0 1 0 0,0.9537 l 3.15914,0 c 0,0 0.88583,-0.006 1.78818,-0.45698 0.90236,-0.451 1.8478,-1.44334 1.8478,-3.179 0,-1.73567 -0.94544,-2.72801 -1.8478,-3.179 -0.90235,-0.451 -1.78818,-0.45698 -1.78818,-0.45698 0,0 -0.69603,-4.4e-4 -1.37095,-0.33777 -0.67492,-0.33733 -1.31134,-0.92687 -1.31134,-2.34452 0,-1.41764 0.63642,-1.98731 1.31134,-2.32464 0.67492,-0.33733 1.37095,-0.33777 1.37095,-0.33777 l 3.15913,0 a 0.4768976,0.4768976 0 1 0 0,-0.9537 l -3.15913,0 c 0,0 -0.042,-0.006 -0.13909,0 z m 9.5966,0 c -1.73616,0 -2.72778,0.92585 -3.179,1.82793 -0.45121,0.90208 -0.45698,1.78818 -0.45698,1.78818 l 0,9.4774 a 0.4768976,0.4768976 0 1 0 0.9537,0 l 0,-9.4774 c 0,0 0.0202,-0.6765 0.35764,-1.35107 0.33742,-0.67457 0.90625,-1.31134 2.32464,-1.31134 1.41839,0 2.00709,0.63677 2.34451,1.31134 0.33742,0.67457 0.33777,1.35107 0.33777,1.35107 l 0,9.4774 a 0.4768976,0.4768976 0 0 0 0,0.0397 0.4768976,0.4768976 0 0 0 0.0198,0.0994 0.4768976,0.4768976 0 0 0 0.0198,0.0397 0.4768976,0.4768976 0 0 0 0.0795,0.13908 0.4768976,0.4768976 0 0 0 0.17882,0.13908 0.4768976,0.4768976 0 0 0 0.0596,0 0.4768976,0.4768976 0 0 0 0.0397,0.0198 0.4768976,0.4768976 0 0 0 0.17882,0 0.4768976,0.4768976 0 0 0 0.13908,-0.0596 0.4768976,0.4768976 0 0 0 0.0397,-0.0198 0.4768976,0.4768976 0 0 0 0.0993,-0.0993 0.4768976,0.4768976 0 0 0 0.0795,-0.11921 0.4768976,0.4768976 0 0 0 0.0198,-0.0596 0.4768976,0.4768976 0 0 0 0,-0.0795 0.4768976,0.4768976 0 0 0 0,-0.0397 l 0,-9.47739 c 0,0 3.5e-4,-0.67651 0.33777,-1.35108 0.33742,-0.67457 0.92613,-1.31133 2.34451,-1.31133 1.41839,0 1.98723,0.63676 2.32465,1.31133 0.33742,0.67457 0.33777,1.35108 0.33777,1.35108 l 0,9.47739 a 0.4768976,0.4768976 0 1 0 0.9537,0 l 0,-9.47739 c 0,0 0.0141,-0.88611 -0.43712,-1.78819 -0.45121,-0.90208 -1.44284,-1.82792 -3.179,-1.82792 -1.69654,0 -2.69314,0.88624 -3.15913,1.76831 -0.46361,-0.88435 -1.45816,-1.76831 -3.15913,-1.76831 z m 15.77579,0 c -1.73616,0 -2.72779,0.92585 -3.179,1.82793 -0.45122,0.90208 -0.45699,1.78818 -0.45699,1.78818 l 0,9.4774 a 0.4768976,0.4768976 0 1 0 0.9537,0 l 0,-9.4774 c 0,0 3.5e-4,-0.6765 0.33777,-1.35107 0.33742,-0.67457 0.92613,-1.31134 2.34452,-1.31134 1.41838,0 1.98722,0.63677 2.32464,1.31134 0.33742,0.67457 0.35764,1.35107 0.35764,1.35107 l 0,9.4774 a 0.4768976,0.4768976 0 1 0 0.9537,0 l 0,-9.4774 c 0,0 -0.006,-0.8861 -0.45699,-1.78818 -0.45121,-0.90208 -1.44284,-1.82793 -3.17899,-1.82793 z m 6.17918,0 a 0.48056086,0.48056086 0 1 0 0.11921,0.9537 l 3.15913,0 c 0,0 0.69602,4.4e-4 1.37094,0.33777 0.67492,0.33733 1.31134,0.907 1.31134,2.32464 0,1.41765 -0.63642,2.00719 -1.31134,2.34452 -0.67492,0.33733 -1.37094,0.33777 -1.37094,0.33777 l -3.05979,0 -0.0993,0 a 0.4768976,0.4768976 0 0 0 -0.0397,0 0.4768976,0.4768976 0 0 0 -0.0596,0 0.4768976,0.4768976 0 0 0 -0.0397,0.0198 0.4768976,0.4768976 0 0 0 -0.0795,0.0397 0.4768976,0.4768976 0 0 0 -0.0397,0.0198 0.4768976,0.4768976 0 0 0 -0.0397,0.0198 0.4768976,0.4768976 0 0 0 -0.0795,0.0795 0.4768976,0.4768976 0 0 0 -0.0198,0.0198 0.4768976,0.4768976 0 0 0 -0.0596,0.13908 0.4768976,0.4768976 0 0 0 -0.0198,0.0397 0.4768976,0.4768976 0 0 0 0,0.0994 0.4768976,0.4768976 0 0 0 0,0.0397 0.4768976,0.4768976 0 0 0 0,0.0198 0.4768976,0.4768976 0 0 0 0.0198,0.0795 0.4768976,0.4768976 0 0 0 0,0.0198 0.4768976,0.4768976 0 0 0 0.0198,0.0198 0.4768976,0.4768976 0 0 0 0.0397,0.0994 0.4768976,0.4768976 0 0 0 0.0397,0.0198 0.4768976,0.4768976 0 0 0 0,0.0198 0.4768976,0.4768976 0 0 0 0.0198,0.0198 0.4768976,0.4768976 0 0 0 0.11921,0.0993 l 6.19905,6.21892 a 0.47767891,0.47767891 0 1 0 0.67554,-0.67554 l -5.50364,-5.50364 2.00674,0 c 0,0 0.88583,0.0139 1.78819,-0.43712 0.90235,-0.45099 1.84779,-1.4632 1.84779,-3.19886 0,-1.73567 -0.94544,-2.728 -1.84779,-3.179 -0.90236,-0.451 -1.78819,-0.43712 -1.78819,-0.43712 l -3.15913,0 a 0.4768976,0.4768976 0 0 0 -0.0795,0 0.47850278,0.47850278 0 0 0 -0.0397,0 z"
       style="color:#000000;font-style:normal;font-variant:normal;font-weight:normal;font-stretch:normal;font-size:medium;line-height:normal;font-family:Sans;-inkscape-font-specification:Sans;text-indent:0;text-align:start;text-decoration:none;text-decoration-line:none;letter-spacing:normal;word-spacing:normal;text-transform:none;direction:ltr;block-progression:tb;writing-mode:lr-tb;baseline-shift:baseline;text-anchor:start;display:inline;overflow:visible;visibility:visible;fill:#ffffff;fill-opacity:1;stroke:none;stroke-width:1.5;marker:none;enable-background:accumulate"
       inkscape:connector-curvature="0"
       inkscape:export-xdpi="90"
       inkscape:export-ydpi="90" />
    <rect
       y="428.07269"
       x="290.01129"
       height="64"
       width="64"
       id="rect4157"
       style="opacity:1;fill:#16a082;fill-opacity:1;stroke:none;stroke-width:4;stroke-linecap:round;stroke-linejoin:round;stroke-miterlimit:4;stroke-dasharray:none;stroke-dashoffset:0;stroke-opacity:1"
       inkscape:export-xdpi="90"
       inkscape:export-ydpi="90" />
    <path
       inkscape:connector-curvature="0"
       style="color:#000000;font-style:normal;font-variant:normal;font-weight:normal;font-stretch:normal;font-size:medium;line-height:normal;font-family:Sans;-inkscape-font-specification:Sans;text-indent:0;text-align:start;text-decoration:none;text-decoration-line:none;letter-spacing:normal;word-spacing:normal;text-transform:none;direction:ltr;block-progression:tb;writing-mode:lr-tb;baseline-shift:baseline;text-anchor:start;display:inline;overflow:visible;visibility:visible;fill:#ffffff;fill-opacity:1;stroke:none;stroke-width:1.5;marker:none;enable-background:accumulate"
       d="m 298.70266,451.02198 c -0.38858,0.0229 -1.29646,0.13187 -2.19881,0.58283 -1.20313,0.60132 -2.46372,1.92444 -2.46372,4.23865 0,2.31423 1.26059,3.66383 2.46372,4.26516 0.90235,0.451 1.81023,0.55984 2.19881,0.58283 a 0.63704047,0.63704047 0 0 0 0.0264,0 c 0.0971,0.004 0.15896,0 0.15896,0 0,0 0.90154,5.9e-4 1.80143,0.45035 0.89989,0.44977 1.77495,1.23584 1.77495,3.12602 0,1.89019 -0.87506,2.64975 -1.77495,3.09952 -0.89989,0.44978 -1.80143,0.47686 -1.80143,0.47686 l -4.21218,0 a 0.63586347,0.63586347 0 1 0 0,1.2716 l 4.21218,0 c 0,0 1.18111,-0.008 2.38424,-0.60931 1.20315,-0.60133 2.46374,-1.92445 2.46374,-4.23867 0,-2.31422 -1.26059,-3.63734 -2.46374,-4.23866 -1.20313,-0.60134 -2.38424,-0.60931 -2.38424,-0.60931 0,0 -0.92804,-5.9e-4 -1.82793,-0.45036 -0.89989,-0.44977 -1.74845,-1.23583 -1.74845,-3.12603 0,-1.89018 0.84856,-2.64974 1.74845,-3.09952 0.89989,-0.44977 1.82793,-0.45036 1.82793,-0.45036 l 4.21218,0 a 0.63586347,0.63586347 0 1 0 0,-1.2716 l -4.21218,0 c 0,0 -0.056,-0.008 -0.18545,0 z m 12.79547,0 c -2.31488,0 -3.63704,1.23447 -4.23867,2.43724 -0.60161,1.20278 -0.6093,2.38424 -0.6093,2.38424 l 0,12.63654 a 0.63586347,0.63586347 0 1 0 1.2716,0 l 0,-12.63654 c 0,0 0.0269,-0.902 0.47685,-1.80142 0.44989,-0.89943 1.20833,-1.74846 3.09952,-1.74846 1.89119,0 2.67612,0.84903 3.12601,1.74846 0.4499,0.89942 0.45036,1.80142 0.45036,1.80142 l 0,12.63654 a 0.63586347,0.63586347 0 0 0 0,0.0529 0.63586347,0.63586347 0 0 0 0.0264,0.13253 0.63586347,0.63586347 0 0 0 0.0264,0.0529 0.63586347,0.63586347 0 0 0 0.106,0.18544 0.63586347,0.63586347 0 0 0 0.23843,0.18544 0.63586347,0.63586347 0 0 0 0.0795,0 0.63586347,0.63586347 0 0 0 0.0529,0.0264 0.63586347,0.63586347 0 0 0 0.23843,0 0.63586347,0.63586347 0 0 0 0.18544,-0.0795 0.63586347,0.63586347 0 0 0 0.0529,-0.0264 0.63586347,0.63586347 0 0 0 0.1324,-0.1324 0.63586347,0.63586347 0 0 0 0.106,-0.15895 0.63586347,0.63586347 0 0 0 0.0264,-0.0795 0.63586347,0.63586347 0 0 0 0,-0.106 0.63586347,0.63586347 0 0 0 0,-0.0529 l 0,-12.63652 c 0,0 4.7e-4,-0.90201 0.45036,-1.80144 0.44989,-0.89942 1.23484,-1.74844 3.12601,-1.74844 1.89119,0 2.64964,0.84902 3.09954,1.74844 0.44989,0.89943 0.45036,1.80144 0.45036,1.80144 l 0,12.63652 a 0.63586347,0.63586347 0 1 0 1.2716,0 l 0,-12.63652 c 0,0 0.0188,-1.18148 -0.58283,-2.38425 -0.60161,-1.20277 -1.92379,-2.43723 -4.23867,-2.43723 -2.26205,0 -3.59085,1.18166 -4.21217,2.35775 -0.61815,-1.17913 -1.94421,-2.35775 -4.21217,-2.35775 z m 21.03439,0 c -2.31488,0 -3.63706,1.23447 -4.23867,2.43724 -0.60163,1.20278 -0.60932,2.38424 -0.60932,2.38424 l 0,12.63654 a 0.63586347,0.63586347 0 1 0 1.2716,0 l 0,-12.63654 c 0,0 4.7e-4,-0.902 0.45036,-1.80142 0.44989,-0.89943 1.23484,-1.74846 3.12603,-1.74846 1.89117,0 2.64962,0.84903 3.09952,1.74846 0.44989,0.89942 0.47685,1.80142 0.47685,1.80142 l 0,12.63654 a 0.63586347,0.63586347 0 1 0 1.2716,0 l 0,-12.63654 c 0,0 -0.008,-1.18146 -0.60932,-2.38424 -0.60161,-1.20277 -1.92379,-2.43724 -4.23865,-2.43724 z m 8.2389,0 a 0.64074793,0.64074793 0 1 0 0.15895,1.2716 l 4.21217,0 c 0,0 0.92803,5.9e-4 1.82792,0.45036 0.8999,0.44978 1.74846,1.20934 1.74846,3.09952 0,1.8902 -0.84856,2.67626 -1.74846,3.12603 -0.89989,0.44977 -1.82792,0.45036 -1.82792,0.45036 l -4.07972,0 -0.1324,0 a 0.63586347,0.63586347 0 0 0 -0.0529,0 0.63586347,0.63586347 0 0 0 -0.0795,0 0.63586347,0.63586347 0 0 0 -0.0529,0.0264 0.63586347,0.63586347 0 0 0 -0.106,0.0529 0.63586347,0.63586347 0 0 0 -0.0529,0.0264 0.63586347,0.63586347 0 0 0 -0.0529,0.0264 0.63586347,0.63586347 0 0 0 -0.106,0.106 0.63586347,0.63586347 0 0 0 -0.0264,0.0264 0.63586347,0.63586347 0 0 0 -0.0795,0.18544 0.63586347,0.63586347 0 0 0 -0.0264,0.0529 0.63586347,0.63586347 0 0 0 0,0.13253 0.63586347,0.63586347 0 0 0 0,0.0529 0.63586347,0.63586347 0 0 0 0,0.0264 0.63586347,0.63586347 0 0 0 0.0264,0.106 0.63586347,0.63586347 0 0 0 0,0.0264 0.63586347,0.63586347 0 0 0 0.0264,0.0264 0.63586347,0.63586347 0 0 0 0.0529,0.13254 0.63586347,0.63586347 0 0 0 0.0529,0.0264 0.63586347,0.63586347 0 0 0 0,0.0264 0.63586347,0.63586347 0 0 0 0.0264,0.0264 0.63586347,0.63586347 0 0 0 0.15895,0.1324 l 8.2654,8.29189 a 0.63690522,0.63690522 0 0 0 0.90072,-0.90072 l -7.33819,-7.33819 2.67566,0 c 0,0 1.1811,0.0185 2.38425,-0.58282 1.20313,-0.60132 2.46372,-1.95094 2.46372,-4.26515 0,-2.31423 -1.26059,-3.63733 -2.46372,-4.23867 -1.20315,-0.60133 -2.38425,-0.58282 -2.38425,-0.58282 l -4.21218,0 a 0.63586347,0.63586347 0 0 0 -0.106,0 0.63800371,0.63800371 0 0 0 -0.0529,0 z"
       id="path4159"
       inkscape:export-xdpi="90"
       inkscape:export-ydpi="90" />
    <rect
       style="opacity:1;fill:#16a082;fill-opacity:1;stroke:none;stroke-width:4;stroke-linecap:round;stroke-linejoin:round;stroke-miterlimit:4;stroke-dasharray:none;stroke-dashoffset:0;stroke-opacity:1"
       id="rect4161"
       width="128"
       height="128"
       x="359.30777"
       y="364.07269"
       inkscape:export-xdpi="90"
       inkscape:export-ydpi="90" />
    <path
       id="path4163"
       d="m 376.69047,409.97127 c -0.77716,0.0458 -2.59292,0.26374 -4.39762,1.16566 -2.40626,1.20264 -4.92744,3.84888 -4.92744,8.4773 0,4.62846 2.52118,7.32766 4.92744,8.53032 1.8047,0.902 3.62046,1.11968 4.39762,1.16566 a 1.2740809,1.2740809 0 0 0 0.0528,0 c 0.1942,0.008 0.31792,0 0.31792,0 0,0 1.80308,0.001 3.60286,0.9007 1.79978,0.89954 3.5499,2.47168 3.5499,6.25204 0,3.78038 -1.75012,5.2995 -3.5499,6.19904 -1.79978,0.89956 -3.60286,0.95372 -3.60286,0.95372 l -8.42436,0 a 1.2717269,1.2717269 0 1 0 0,2.5432 l 8.42436,0 c 0,0 2.36222,-0.016 4.76848,-1.21862 2.4063,-1.20266 4.92748,-3.8489 4.92748,-8.47734 0,-4.62844 -2.52118,-7.27468 -4.92748,-8.47732 -2.40626,-1.20268 -4.76848,-1.21862 -4.76848,-1.21862 0,0 -1.85608,-0.001 -3.65586,-0.90072 -1.79978,-0.89954 -3.4969,-2.47166 -3.4969,-6.25206 0,-3.78036 1.69712,-5.29948 3.4969,-6.19904 1.79978,-0.89954 3.65586,-0.90072 3.65586,-0.90072 l 8.42436,0 a 1.2717269,1.2717269 0 1 0 0,-2.5432 l -8.42436,0 c 0,0 -0.112,-0.016 -0.3709,0 z m 25.59094,0 c -4.62976,0 -7.27408,2.46894 -8.47734,4.87448 -1.20322,2.40556 -1.2186,4.76848 -1.2186,4.76848 l 0,25.27308 a 1.2717269,1.2717269 0 1 0 2.5432,0 l 0,-25.27308 c 0,0 0.0538,-1.804 0.9537,-3.60284 0.89978,-1.79886 2.41666,-3.49692 6.19904,-3.49692 3.78238,0 5.35224,1.69806 6.25202,3.49692 0.8998,1.79884 0.90072,3.60284 0.90072,3.60284 l 0,25.27308 a 1.2717269,1.2717269 0 0 0 0,0.1058 1.2717269,1.2717269 0 0 0 0.0528,0.26506 1.2717269,1.2717269 0 0 0 0.0528,0.1058 1.2717269,1.2717269 0 0 0 0.212,0.37088 1.2717269,1.2717269 0 0 0 0.47686,0.37088 1.2717269,1.2717269 0 0 0 0.159,0 1.2717269,1.2717269 0 0 0 0.1058,0.0528 1.2717269,1.2717269 0 0 0 0.47686,0 1.2717269,1.2717269 0 0 0 0.37088,-0.159 1.2717269,1.2717269 0 0 0 0.1058,-0.0528 1.2717269,1.2717269 0 0 0 0.2648,-0.2648 1.2717269,1.2717269 0 0 0 0.212,-0.3179 1.2717269,1.2717269 0 0 0 0.0528,-0.159 1.2717269,1.2717269 0 0 0 0,-0.212 1.2717269,1.2717269 0 0 0 0,-0.1058 l 0,-25.27304 c 0,0 9.4e-4,-1.80402 0.90072,-3.60288 0.89978,-1.79884 2.46968,-3.49688 6.25202,-3.49688 3.78238,0 5.29928,1.69804 6.19908,3.49688 0.89978,1.79886 0.90072,3.60288 0.90072,3.60288 l 0,25.27304 a 1.2717269,1.2717269 0 1 0 2.5432,0 l 0,-25.27304 c 0,0 0.0376,-2.36296 -1.16566,-4.7685 -1.20322,-2.40554 -3.84758,-4.87446 -8.47734,-4.87446 -4.5241,0 -7.1817,2.36332 -8.42434,4.7155 -1.2363,-2.35826 -3.88842,-4.7155 -8.42434,-4.7155 z m 42.06878,0 c -4.62976,0 -7.27412,2.46894 -8.47734,4.87448 -1.20326,2.40556 -1.21864,4.76848 -1.21864,4.76848 l 0,25.27308 a 1.2717269,1.2717269 0 1 0 2.5432,0 l 0,-25.27308 c 0,0 9.4e-4,-1.804 0.90072,-3.60284 0.89978,-1.79886 2.46968,-3.49692 6.25206,-3.49692 3.78234,0 5.29924,1.69806 6.19904,3.49692 0.89978,1.79884 0.9537,3.60284 0.9537,3.60284 l 0,25.27308 a 1.2717269,1.2717269 0 1 0 2.5432,0 l 0,-25.27308 c 0,0 -0.016,-2.36292 -1.21864,-4.76848 -1.20322,-2.40554 -3.84758,-4.87448 -8.4773,-4.87448 z m 16.4778,0 a 1.2814959,1.2814959 0 1 0 0.3179,2.5432 l 8.42434,0 c 0,0 1.85606,10e-4 3.65584,0.90072 1.7998,0.89956 3.49692,2.41868 3.49692,6.19904 0,3.7804 -1.69712,5.35252 -3.49692,6.25206 -1.79978,0.89954 -3.65584,0.90072 -3.65584,0.90072 l -8.15944,0 -0.2648,0 a 1.2717269,1.2717269 0 0 0 -0.1058,0 1.2717269,1.2717269 0 0 0 -0.159,0 1.2717269,1.2717269 0 0 0 -0.1058,0.0528 1.2717269,1.2717269 0 0 0 -0.212,0.1058 1.2717269,1.2717269 0 0 0 -0.1058,0.0528 1.2717269,1.2717269 0 0 0 -0.1058,0.0528 1.2717269,1.2717269 0 0 0 -0.212,0.212 1.2717269,1.2717269 0 0 0 -0.0528,0.0528 1.2717269,1.2717269 0 0 0 -0.159,0.37088 1.2717269,1.2717269 0 0 0 -0.0528,0.1058 1.2717269,1.2717269 0 0 0 0,0.26506 1.2717269,1.2717269 0 0 0 0,0.1058 1.2717269,1.2717269 0 0 0 0,0.0528 1.2717269,1.2717269 0 0 0 0.0528,0.212 1.2717269,1.2717269 0 0 0 0,0.0528 1.2717269,1.2717269 0 0 0 0.0528,0.0528 1.2717269,1.2717269 0 0 0 0.1058,0.26508 1.2717269,1.2717269 0 0 0 0.1058,0.0528 1.2717269,1.2717269 0 0 0 0,0.0528 1.2717269,1.2717269 0 0 0 0.0528,0.0528 1.2717269,1.2717269 0 0 0 0.3179,0.2648 l 16.5308,16.58378 a 1.2738104,1.2738104 0 0 0 1.80144,-1.80144 l -14.67638,-14.67638 5.35132,0 c 0,0 2.3622,0.037 4.7685,-1.16564 2.40626,-1.20264 4.92744,-3.90188 4.92744,-8.5303 0,-4.62846 -2.52118,-7.27466 -4.92744,-8.47734 -2.4063,-1.20266 -4.7685,-1.16564 -4.7685,-1.16564 l -8.42436,0 a 1.2717269,1.2717269 0 0 0 -0.212,0 1.2760074,1.2760074 0 0 0 -0.1058,0 z"
       style="color:#000000;font-style:normal;font-variant:normal;font-weight:normal;font-stretch:normal;font-size:medium;line-height:normal;font-family:Sans;-inkscape-font-specification:Sans;text-indent:0;text-align:start;text-decoration:none;text-decoration-line:none;letter-spacing:normal;word-spacing:normal;text-transform:none;direction:ltr;block-progression:tb;writing-mode:lr-tb;baseline-shift:baseline;text-anchor:start;display:inline;overflow:visible;visibility:visible;fill:#ffffff;fill-opacity:1;stroke:none;stroke-width:1.5;marker:none;enable-background:accumulate"
       inkscape:connector-curvature="0"
       inkscape:export-xdpi="90"
       inkscape:export-ydpi="90" />
    <rect
       y="236.07269"
       x="494.30777"
       height="256"
       width="256"
       id="rect4165"
       style="opacity:1;fill:#16a082;fill-opacity:1;stroke:none;stroke-width:4;stroke-linecap:round;stroke-linejoin:round;stroke-miterlimit:4;stroke-dasharray:none;stroke-dashoffset:0;stroke-opacity:1"
       inkscape:export-xdpi="90"
       inkscape:export-ydpi="90" />
    <path
       inkscape:connector-curvature="0"
       style="color:#000000;font-style:normal;font-variant:normal;font-weight:normal;font-stretch:normal;font-size:medium;line-height:normal;font-family:Sans;-inkscape-font-specification:Sans;text-indent:0;text-align:start;text-decoration:none;text-decoration-line:none;letter-spacing:normal;word-spacing:normal;text-transform:none;direction:ltr;block-progression:tb;writing-mode:lr-tb;baseline-shift:baseline;text-anchor:start;display:inline;overflow:visible;visibility:visible;fill:#ffffff;fill-opacity:1;stroke:none;stroke-width:1.5;marker:none;enable-background:accumulate"
       d="m 529.07317,327.86985 c -1.55432,0.0916 -5.18584,0.52748 -8.79524,2.33132 -4.81252,2.40528 -9.85488,7.69776 -9.85488,16.9546 0,9.25692 5.04236,14.65532 9.85488,17.06064 3.6094,1.804 7.24092,2.23936 8.79524,2.33132 a 2.5481618,2.5481618 0 0 0 0.1056,0 c 0.3884,0.016 0.63584,0 0.63584,0 0,0 3.60616,0.002 7.20572,1.8014 3.59956,1.79908 7.0998,4.94336 7.0998,12.50408 0,7.56076 -3.50024,10.599 -7.0998,12.39808 -3.59956,1.79912 -7.20572,1.90744 -7.20572,1.90744 l -16.84872,0 a 2.5434538,2.5434538 0 1 0 0,5.0864 l 16.84872,0 c 0,0 4.72444,-0.032 9.53696,-2.43724 4.8126,-2.40532 9.85496,-7.6978 9.85496,-16.95468 0,-9.25688 -5.04236,-14.54936 -9.85496,-16.95464 -4.81252,-2.40536 -9.53696,-2.43724 -9.53696,-2.43724 0,0 -3.71216,-0.002 -7.31172,-1.80144 -3.59956,-1.79908 -6.9938,-4.94332 -6.9938,-12.50412 0,-7.56072 3.39424,-10.59896 6.9938,-12.39808 3.59956,-1.79908 7.31172,-1.80144 7.31172,-1.80144 l 16.84872,0 a 2.5434538,2.5434538 0 1 0 0,-5.0864 l -16.84872,0 c 0,0 -0.224,-0.032 -0.7418,0 z m 51.18188,0 c -9.25952,0 -14.54816,4.93788 -16.95468,9.74896 -2.40644,4.81112 -2.4372,9.53696 -2.4372,9.53696 l 0,50.54616 a 2.5434538,2.5434538 0 1 0 5.0864,0 l 0,-50.54616 c 0,0 0.1076,-3.608 1.9074,-7.20568 1.79956,-3.59772 4.83332,-6.99384 12.39808,-6.99384 7.56476,0 10.70448,3.39612 12.50404,6.99384 1.7996,3.59768 1.80144,7.20568 1.80144,7.20568 l 0,50.54616 a 2.5434538,2.5434538 0 0 0 0,0.2116 2.5434538,2.5434538 0 0 0 0.1056,0.53012 2.5434538,2.5434538 0 0 0 0.1056,0.2116 2.5434538,2.5434538 0 0 0 0.424,0.74176 2.5434538,2.5434538 0 0 0 0.95372,0.74176 2.5434538,2.5434538 0 0 0 0.318,0 2.5434538,2.5434538 0 0 0 0.2116,0.1056 2.5434538,2.5434538 0 0 0 0.95372,0 2.5434538,2.5434538 0 0 0 0.74176,-0.318 2.5434538,2.5434538 0 0 0 0.2116,-0.1056 2.5434538,2.5434538 0 0 0 0.5296,-0.5296 2.5434538,2.5434538 0 0 0 0.424,-0.6358 2.5434538,2.5434538 0 0 0 0.1056,-0.318 2.5434538,2.5434538 0 0 0 0,-0.424 2.5434538,2.5434538 0 0 0 0,-0.2116 l 0,-50.54608 c 0,0 0.002,-3.60804 1.80144,-7.20576 1.79956,-3.59768 4.93936,-6.99376 12.50404,-6.99376 7.56476,0 10.59856,3.39608 12.39816,6.99376 1.79956,3.59772 1.80144,7.20576 1.80144,7.20576 l 0,50.54608 a 2.5434538,2.5434538 0 1 0 5.0864,0 l 0,-50.54608 c 0,0 0.0752,-4.72592 -2.33132,-9.537 -2.40644,-4.81108 -7.69516,-9.74892 -16.95468,-9.74892 -9.0482,0 -14.3634,4.72664 -16.84868,9.431 -2.4726,-4.71652 -7.77684,-9.431 -16.84868,-9.431 z m 84.13756,0 c -9.25952,0 -14.54824,4.93788 -16.95468,9.74896 -2.40652,4.81112 -2.43728,9.53696 -2.43728,9.53696 l 0,50.54616 a 2.5434538,2.5434538 0 1 0 5.0864,0 l 0,-50.54616 c 0,0 0.002,-3.608 1.80144,-7.20568 1.79956,-3.59772 4.93936,-6.99384 12.50412,-6.99384 7.56468,0 10.59848,3.39612 12.39808,6.99384 1.79956,3.59768 1.9074,7.20568 1.9074,7.20568 l 0,50.54616 a 2.5434538,2.5434538 0 1 0 5.0864,0 l 0,-50.54616 c 0,0 -0.032,-4.72584 -2.43728,-9.53696 -2.40644,-4.81108 -7.69516,-9.74896 -16.9546,-9.74896 z m 32.9556,0 a 2.5629918,2.5629918 0 1 0 0.6358,5.0864 l 16.84868,0 c 0,0 3.71212,0.002 7.31168,1.80144 3.5996,1.79912 6.99384,4.83736 6.99384,12.39808 0,7.5608 -3.39424,10.70504 -6.99384,12.50412 -3.59956,1.79908 -7.31168,1.80144 -7.31168,1.80144 l -16.31888,0 -0.5296,0 a 2.5434538,2.5434538 0 0 0 -0.2116,0 2.5434538,2.5434538 0 0 0 -0.318,0 2.5434538,2.5434538 0 0 0 -0.2116,0.1056 2.5434538,2.5434538 0 0 0 -0.424,0.2116 2.5434538,2.5434538 0 0 0 -0.2116,0.1056 2.5434538,2.5434538 0 0 0 -0.2116,0.1056 2.5434538,2.5434538 0 0 0 -0.424,0.424 2.5434538,2.5434538 0 0 0 -0.1056,0.1056 2.5434538,2.5434538 0 0 0 -0.318,0.74176 2.5434538,2.5434538 0 0 0 -0.1056,0.2116 2.5434538,2.5434538 0 0 0 0,0.53012 2.5434538,2.5434538 0 0 0 0,0.2116 2.5434538,2.5434538 0 0 0 0,0.1056 2.5434538,2.5434538 0 0 0 0.1056,0.424 2.5434538,2.5434538 0 0 0 0,0.1056 2.5434538,2.5434538 0 0 0 0.1056,0.1056 2.5434538,2.5434538 0 0 0 0.2116,0.53016 2.5434538,2.5434538 0 0 0 0.2116,0.1056 2.5434538,2.5434538 0 0 0 0,0.1056 2.5434538,2.5434538 0 0 0 0.1056,0.1056 2.5434538,2.5434538 0 0 0 0.6358,0.5296 l 33.0616,33.16756 a 2.5476209,2.5476209 0 0 0 3.60288,-3.60288 l -29.35276,-29.35276 10.70264,0 c 0,0 4.7244,0.074 9.537,-2.33128 4.81252,-2.40528 9.85488,-7.80376 9.85488,-17.0606 0,-9.25692 -5.04236,-14.54932 -9.85488,-16.95468 -4.8126,-2.40532 -9.537,-2.33128 -9.537,-2.33128 l -16.84872,0 a 2.5434538,2.5434538 0 0 0 -0.424,0 2.5520148,2.5520148 0 0 0 -0.2116,0 z"
       id="path4167" />
  </g>
</svg>
