<?xml version="1.0" encoding="UTF-8" standalone="no"?>
<!-- Created with Inkscape (http://www.inkscape.org/) -->

<svg
   xmlns:dc="http://purl.org/dc/elements/1.1/"
   xmlns:cc="http://creativecommons.org/ns#"
   xmlns:rdf="http://www.w3.org/1999/02/22-rdf-syntax-ns#"
   xmlns:svg="http://www.w3.org/2000/svg"
   xmlns="http://www.w3.org/2000/svg"
   xmlns:sodipodi="http://sodipodi.sourceforge.net/DTD/sodipodi-0.dtd"
   xmlns:inkscape="http://www.inkscape.org/namespaces/inkscape"
   width="66.011986"
   height="21.35704"
   id="svg2"
   version="1.1"
   inkscape:version="0.48.4 r9939"
   sodipodi:docname="SMAR_logo_white.svg">
  <defs
     id="defs4" />
  <sodipodi:namedview
     id="base"
     pagecolor="#ffffff"
     bordercolor="#666666"
     borderopacity="1.0"
     inkscape:pageopacity="0.0"
     inkscape:pageshadow="2"
     inkscape:zoom="11.2"
     inkscape:cx="25.051018"
     inkscape:cy="1.9662754"
     inkscape:document-units="px"
     inkscape:current-layer="layer1"
     showgrid="false"
     inkscape:object-nodes="true"
     fit-margin-top="0"
     fit-margin-left="0"
     fit-margin-right="0"
     fit-margin-bottom="0"
     inkscape:window-width="1680"
     inkscape:window-height="988"
     inkscape:window-x="1592"
     inkscape:window-y="-8"
     inkscape:window-maximized="1">
    <inkscape:grid
       type="xygrid"
       id="grid2985"
       empspacing="5"
       visible="true"
       enabled="true"
       snapvisiblegridlinesonly="true"
       originx="-204.23932px"
       originy="-534.2265px" />
  </sodipodi:namedview>
  <metadata
     id="metadata7">
    <rdf:RDF>
      <cc:Work
         rdf:about="">
        <dc:format>image/svg+xml</dc:format>
        <dc:type
           rdf:resource="http://purl.org/dc/dcmitype/StillImage" />
        <dc:title></dc:title>
      </cc:Work>
    </rdf:RDF>
  </metadata>
  <g
     inkscape:label="Ebene 1"
     inkscape:groupmode="layer"
     id="layer1"
     transform="translate(-204.23932,-496.77864)">
    <path
       style="font-size:medium;font-style:normal;font-variant:normal;font-weight:normal;font-stretch:normal;text-indent:0;text-align:start;text-decoration:none;line-height:normal;letter-spacing:normal;word-spacing:normal;text-transform:none;direction:ltr;block-progression:tb;writing-mode:lr-tb;text-anchor:start;baseline-shift:baseline;color:#000000;fill:#ffffff;fill-opacity:1;stroke:none;stroke-width:1.50000000000000000;marker:none;visibility:visible;display:inline;overflow:visible;enable-background:accumulate;font-family:Sans;-inkscape-font-specification:Sans"
       d="M 5.5 0 C 5.0416188 0.027117188 3.97068 0.155525 2.90625 0.6875 C 1.48701 1.39684 0 2.95761 0 5.6875 C 0 8.41739 1.48701 10.00941 2.90625 10.71875 C 3.97068 11.250755 5.0416188 11.379142 5.5 11.40625 A 0.75146342 0.75146342 0 0 0 5.53125 11.40625 C 5.6457489 11.411654 5.71875 11.40625 5.71875 11.40625 C 5.71875 11.40625 6.78222 11.40695 7.84375 11.9375 C 8.90528 12.46805 9.9375 13.39531 9.9375 15.625 C 9.9375 17.8547 8.90528 18.75069 7.84375 19.28125 C 6.78222 19.81181 5.71875 19.84375 5.71875 19.84375 L 0.75 19.84375 A 0.750075 0.750075 0 1 0 0.75 21.34375 L 5.71875 21.34375 C 5.71875 21.34375 7.11201 21.33475 8.53125 20.625 C 9.95049 19.91566 11.4375 18.35489 11.4375 15.625 C 11.4375 12.89511 9.95049 11.33434 8.53125 10.625 C 7.11201 9.91566 5.71875 9.90625 5.71875 9.90625 C 5.71875 9.90625 4.62403 9.90556 3.5625 9.375 C 2.50097 8.84444 1.5 7.9172 1.5 5.6875 C 1.5 3.4578 2.50097 2.56181 3.5625 2.03125 C 4.62403 1.50069 5.71875 1.5 5.71875 1.5 L 10.6875 1.5 A 0.750075 0.750075 0 1 0 10.6875 0 L 5.71875 0 C 5.71875 0 5.6527937 -0.0090390625 5.5 0 z M 20.59375 0 C 17.86308 0 16.30343 1.45619 15.59375 2.875 C 14.88407 4.29381 14.875 5.6875 14.875 5.6875 L 14.875 20.59375 A 0.750075 0.750075 0 1 0 16.375 20.59375 L 16.375 5.6875 C 16.375 5.6875 16.4068 4.62348 16.9375 3.5625 C 17.4682 2.50152 18.36288 1.5 20.59375 1.5 C 22.82462 1.5 23.75055 2.50152 24.28125 3.5625 C 24.81195 4.62348 24.8125 5.6875 24.8125 5.6875 L 24.8125 20.59375 A 0.750075 0.750075 0 0 0 24.8125 20.65625 A 0.750075 0.750075 0 0 0 24.84375 20.8125 A 0.750075 0.750075 0 0 0 24.875 20.875 A 0.750075 0.750075 0 0 0 25 21.09375 A 0.750075 0.750075 0 0 0 25.28125 21.3125 A 0.750075 0.750075 0 0 0 25.375 21.3125 A 0.750075 0.750075 0 0 0 25.4375 21.34375 A 0.750075 0.750075 0 0 0 25.71875 21.34375 A 0.750075 0.750075 0 0 0 25.9375 21.25 A 0.750075 0.750075 0 0 0 26 21.21875 A 0.750075 0.750075 0 0 0 26.15625 21.0625 A 0.750075 0.750075 0 0 0 26.28125 20.875 A 0.750075 0.750075 0 0 0 26.3125 20.78125 A 0.750075 0.750075 0 0 0 26.3125 20.65625 A 0.750075 0.750075 0 0 0 26.3125 20.59375 L 26.3125 5.6875 C 26.3125 5.6875 26.31305 4.62348 26.84375 3.5625 C 27.37445 2.50152 28.30038 1.5 30.53125 1.5 C 32.76212 1.5 33.6568 2.50152 34.1875 3.5625 C 34.7182 4.62348 34.71875 5.6875 34.71875 5.6875 L 34.71875 20.59375 A 0.750075 0.750075 0 1 0 36.21875 20.59375 L 36.21875 5.6875 C 36.21875 5.6875 36.24095 4.29381 35.53125 2.875 C 34.82157 1.45619 33.26192 0 30.53125 0 C 27.86288 0 26.295413 1.393903 25.5625 2.78125 C 24.833316 1.3903162 23.269069 0 20.59375 0 z M 45.40625 0 C 42.67558 0 41.11593 1.45619 40.40625 2.875 C 39.69657 4.29381 39.6875 5.6875 39.6875 5.6875 L 39.6875 20.59375 A 0.750075 0.750075 0 1 0 41.1875 20.59375 L 41.1875 5.6875 C 41.1875 5.6875 41.18805 4.62348 41.71875 3.5625 C 42.24945 2.50152 43.17538 1.5 45.40625 1.5 C 47.63711 1.5 48.5318 2.50152 49.0625 3.5625 C 49.5932 4.62348 49.625 5.6875 49.625 5.6875 L 49.625 20.59375 A 0.750075 0.750075 0 1 0 51.125 20.59375 L 51.125 5.6875 C 51.125 5.6875 51.116 4.29381 50.40625 2.875 C 49.69657 1.45619 48.13692 0 45.40625 0 z M 55.125 0 A 0.75259966 0.75259966 0 0 0 55.3125 1.5 L 60.28125 1.5 C 60.28125 1.5 61.37597 1.50069 62.4375 2.03125 C 63.49903 2.56181 64.5 3.4578 64.5 5.6875 C 64.5 7.9172 63.49903 8.84444 62.4375 9.375 C 61.37597 9.90556 60.28125 9.90625 60.28125 9.90625 L 55.46875 9.90625 L 55.3125 9.90625 A 0.750075 0.750075 0 0 0 55.25 9.90625 A 0.750075 0.750075 0 0 0 55.15625 9.90625 A 0.750075 0.750075 0 0 0 55.09375 9.9375 A 0.750075 0.750075 0 0 0 54.96875 10 A 0.750075 0.750075 0 0 0 54.90625 10.03125 A 0.750075 0.750075 0 0 0 54.84375 10.0625 A 0.750075 0.750075 0 0 0 54.71875 10.1875 A 0.750075 0.750075 0 0 0 54.6875 10.21875 A 0.750075 0.750075 0 0 0 54.59375 10.4375 A 0.750075 0.750075 0 0 0 54.5625 10.5 A 0.750075 0.750075 0 0 0 54.5625 10.65625 A 0.750075 0.750075 0 0 0 54.5625 10.71875 A 0.750075 0.750075 0 0 0 54.5625 10.75 A 0.750075 0.750075 0 0 0 54.59375 10.875 A 0.750075 0.750075 0 0 0 54.59375 10.90625 A 0.750075 0.750075 0 0 0 54.625 10.9375 A 0.750075 0.750075 0 0 0 54.6875 11.09375 A 0.750075 0.750075 0 0 0 54.75 11.125 A 0.750075 0.750075 0 0 0 54.75 11.15625 A 0.750075 0.750075 0 0 0 54.78125 11.1875 A 0.750075 0.750075 0 0 0 54.96875 11.34375 L 64.71875 21.125 A 0.75130096 0.75130096 0 1 0 65.78125 20.0625 L 57.125 11.40625 L 60.28125 11.40625 C 60.28125 11.40625 61.67451 11.42805 63.09375 10.71875 C 64.51299 10.00941 66 8.41739 66 5.6875 C 66 2.95761 64.51299 1.39684 63.09375 0.6875 C 61.67451 -0.02184 60.28125 0 60.28125 0 L 55.3125 0 A 0.750075 0.750075 0 0 0 55.1875 0 A 0.75259966 0.75259966 0 0 0 55.125 0 z "
       transform="translate(204.23932,496.77864)"
       id="path2993" />
  </g>
</svg>
